<?xml version="1.0" standalone="no"?>
<!DOCTYPE svg PUBLIC "-//W3C//DTD SVG 20010904//EN"
 "http://www.w3.org/TR/2001/REC-SVG-20010904/DTD/svg10.dtd">
<svg version="1.0" xmlns="http://www.w3.org/2000/svg"
 width="700.000000pt" height="700.000000pt" viewBox="0 0 700.000000 700.000000"
 preserveAspectRatio="xMidYMid meet">
<metadata>
Created by potrace 1.11, written by Peter Selinger 2001-2013
</metadata>
<g transform="translate(0.000000,700.000000) scale(0.100000,-0.100000)"
fill="#000000" stroke="none">
<path d="M0 3500 l0 -3500 3500 0 3500 0 0 3500 0 3500 -3500 0 -3500 0 0
-3500z m3910 2920 c314 -29 542 -97 720 -215 81 -54 211 -189 259 -269 126
-211 147 -550 46 -763 -70 -148 -184 -230 -337 -242 -134 -10 -189 1 -313 64
-61 31 -123 66 -139 78 l-27 22 18 72 c15 62 22 74 46 84 38 16 85 73 116 139
30 66 41 214 21 313 -15 78 -63 170 -108 207 -168 139 -471 171 -721 78 -185
-69 -386 -257 -508 -473 -136 -243 -219 -554 -244 -915 -27 -409 53 -838 208
-1120 144 -259 350 -403 598 -417 369 -21 611 234 746 782 32 132 64 340 74
480 3 50 9 102 11 118 l6 27 261 0 c144 0 306 -3 360 -7 l98 -6 -4 -1291 c-3
-1175 -5 -1301 -21 -1400 -88 -548 -326 -894 -721 -1047 -301 -117 -766 -117
-1052 0 -378 156 -575 461 -575 891 0 241 64 433 192 573 194 211 537 285 852
181 231 -76 351 -247 335 -479 -3 -44 -11 -98 -19 -120 -13 -39 -15 -40 -80
-54 l-68 -14 -46 42 c-57 53 -108 76 -202 90 -236 36 -374 -79 -374 -309 1
-280 223 -500 505 -500 202 0 353 120 429 340 44 128 48 199 48 869 l0 634
-76 -72 c-162 -155 -351 -244 -603 -286 -82 -14 -139 -17 -275 -12 -238 8
-393 45 -586 142 -231 115 -457 326 -598 557 -211 346 -315 798 -299 1298 28
824 341 1409 927 1728 301 163 716 238 1120 202z"/>
</g>
</svg>
