<svg version="1.1" xmlns="http://www.w3.org/2000/svg" xmlns:xlink="http://www.w3.org/1999/xlink" width="512" height="512" viewBox="0 0 512 512">
<g>
</g>
	<path d="M7029.965 37002.681c0 15.394-12.48 27.874-27.873 27.874-15.394 0-27.873-12.48-27.873-27.874 0-15.394 12.48-27.874 27.873-27.874 15.394 0 27.873 12.48 27.873 27.874z" fill="#ffffff" />
	<path d="M6832.282 37085.624l-1.218 0.215-1.177 0.563z" fill="#ffffff" />
	<path d="M6870.681 37069.957l-0.051-0.502c-0.113-0.942-0.072-1.863-0.041-2.775l-39.526 19.149 1.218-0.215-2.386 0.778 1.167-0.563-20.89 3.645 30.966 5.56 34.498-12.165-4.792-12.462-0.164-0.45z" fill="#ffffff" />
	<path d="M6844.068 37101.056l-2.233-0.399-2.099 0.707z" fill="#ffffff" />
	<path d="M6877.44 37088.921l-35.605 11.735 2.233 0.399-4.332 0.297 2.099-0.696-72.212-12.861-2.663 1.382-26.276 23.327 29.757-6.533-0.973-0.185 5.611-0.84-4.639 1.024 72.704 12.944 2.15-0.696 47.626-15.719c-3.123-0.717-6.073-2.038-8.663-4.065-3.175-2.519-5.448-5.817-6.82-9.513z" fill="#ffffff" />
	<path d="M6769.48 37105.797l0.973 0.185 4.639-1.024z" fill="#ffffff" />
	<path d="M6878.535 37067.366c0 0.297-0.113 0.573-0.092 0.912l4.598 11.981 1.813-0.645-6.318-12.247z" fill="#ffffff" />
	<path d="M6885.079 37086.402c0.87 2.253 2.119 4.321 4.065 5.857 2.898 2.304 6.502 3.318 10.168 2.898 0 0 2.498-0.297 6.38-0.738l-4.403-13.363-16.21 5.346z" fill="#ffffff" />
	<path d="M6997.391 37038.622h-0.092l0.020 0.082z" fill="#ffffff" />
	<path d="M6876.16 37083.904c0.041 0.256 0.133 0.522 0.174 0.778l0.072 0.185-0.246-0.963z" fill="#ffffff" />
	<path d="M6978.887 37030.635l0.123 0.020 0.409-0.103z" fill="#ffffff" />
	<path d="M6878.434 37068.575c-0.020-0.113 0.020-0.215 0.020-0.287l-0.246-0.676 0.225 0.963z" fill="#ffffff" />
	<path d="M7061.985 37029.868l-63.815 12.585-24.167 5.264c5.427 6.082 18.473 16.589 31.181 29.122l60.877-32.082 184.709 7.004 2.078-11.315-190.864-10.578z" fill="#ffffff" />
	<path d="M7081.626 37082.696l-6.451-4.188-5.52 5.468z" fill="#ffffff" />
	<path d="M7102.331 37051.556l-27.157 26.952 6.451 4.188-11.971 1.28 5.52-5.468-27.648-17.838-19.671 10.086 49.89 32.226 5.499-5.478 43.12-44.964z" fill="#ffffff" />
	<path d="M7029.637 37089.065l-5.673-4.649-6.492 5.223z" fill="#ffffff" />
	<path d="M7066.736 37050.204l-42.773 34.212 5.673 4.649-12.165 0.573 6.492-5.223-8.766-7.137-10.834 5.56-3.4-2.704-34.97-33.26-8.468 11.796 66.959 50.463 5.878-5.315 58.675-52.9z" fill="#ffffff" />
	<path d="M6970.43 37040.702l-3.789 5.274 7.711-2.079z" fill="#ffffff" />
	<path d="M6965.412 37046.302l0.583 0.573 0.645-0.901z" fill="#ffffff" />
	<path d="M6966.641 37045.975l7.711-2.079c0 0 16.773-3.881 18.821-4.423-2.222-5.683-7.824-9.503-14.162-8.817l-88.412 22.518c-7.178 0.84-12.267 7.096-12.052 14.192l6.318 12.247-1.813 0.645 0.686 1.792 0.185 0.45 0.051 0.502c0.133 1.198 0.666 2.304 1.106 3.399l16.22-5.335 4.403 13.363c19.763-2.304 79.544-9.277 79.565-9.277 2.058-0.215 3.953-1.116 5.703-2.283l-12.913-24.535-12.052-11.448 0.635-0.912z" fill="#ffffff" />
	<path d="M69.397 283.034l50.064 47.637 48.24-53.033 7.762 7.424 46.489 44.401 58.89-45.66 6.523 5.878 44.002 39.782 57.026-46.080 45.476 45.476 48.24-42.762c1.3-9.831 2.038-19.886 2.038-30.075-0.010-126.044-102.144-228.167-228.147-228.167-125.962 0-228.126 102.124-228.126 228.167 0 23.47 3.564 46.111 10.148 67.43 12.319-15.678 24.115-30.976 24.29-31.202l7.086-9.216zM333.159 287.068c-21.822 0-39.516-17.695-39.516-39.536 0-21.822 17.705-39.516 39.516-39.516 21.863 0 39.557 17.705 39.557 39.516 0 21.852-17.695 39.536-39.557 39.536zM283.525 169.851l5.264-9.79 123.699 26.327-6.185 28.938-101.959-21.73-31.642 58.89c10.281 3.164 18.995 12.308 21.924 24.606l-9.277-8.397-6.523-5.878-58.859 45.66-40.837-38.994 57.323-12.626 47.073-87.010z" fill="#ffffff" />
	<path d="M433.019 357.632l-6.983-6.994-39.158-39.127-56.32 45.527-6.635-6.021-42.342-38.318c-2.416 1.515-5.058 2.775-7.957 3.42 0 0-0.185-0.021-0.256-0.021l-52.787 40.96-6.543-6.236-45.261-43.202-48.22 53.012-48.752-46.407c-6.462 8.336-16.333 21.002-25.262 32.205 35.011 81.008 115.609 137.718 209.459 137.718 103.567 0 190.966-69.038 218.829-163.605l-41.81 37.089z" fill="#ffffff" />
	<path d="M281.579 312.688l-1.782-1.598-6.441 4.997c0.082 0 0.256 0.021 0.256 0.021 2.908-0.635 5.55-1.894 7.966-3.42z" fill="#ffffff" />
	<path d="M478.577 303.145l0.522 0.594c0.041-0.185 0.082-0.379 0.123-0.553l-0.645-0.041z" fill="#ffffff" />
</svg>

